# xmcd
#
# Track frame offsets: 
#        182
#        11320
#        22472
#        30717
#        42185
#        53947
#        65915
#        77375
#        87247
#        99572
#        109150
#        120255
#        128927
#        140070
#        148267
#        160077
#        172585
#        185507
#        202752
#        213635
#
# Disc length: 3019 seconds
#
# Revision: 3
# Processed by: cddbd v1.5.2PL0 Copyright (c) Steve Scherf et al.
# Submitted via: ExactAudioCopy v0.99pb5
#
DISCID=160bc914
DTITLE=Various Artist - Superstars of Country [K-tel]
DYEAR=1997
DGENRE=Country
TTITLE0=Don Gibson - Sea of heartbreake
TTITLE1=Don Gibson - Oh, lonesome me
TTITLE2=Don Gibson - Blue blue day
TTITLE3=Don Gibson - Give myself a party
TTITLE4=Don Gibson - i can't stop loving you
TTITLE5=Skeeter Davis - The end of the world
TTITLE6=Skeeter Davis - Gonna get along without you
TTITLE7=Skeeter Davis - i can't stay mad at you
TTITLE8=Skeeter Davis - What does it take
TTITLE9=Skeeter Davis - Am i that easy to forget
TTITLE10=Roger Miller - King of the road
TTITLE11=Roger Miller - England swings
TTITLE12=Roger Miller - Husbands and wives
TTITLE13=Roger Miller - In the summertime
TTITLE14=Roger Miller - Walkin' in sunshine
TTITLE15=Charlie Rich - Behind closed doors
TTITLE16=Charlie Rich - Good time Charlie's got the blues
TTITLE17=Charlie Rich - My exclusive dreams
TTITLE18=Charlie Rich - There won't be anymore
TTITLE19=Charlie Rich - The most beautiful girl
EXTD=\n
EXTT0=
EXTT1=
EXTT2=
EXTT3=
EXTT4=
EXTT5=
EXTT6=
EXTT7=
EXTT8=
EXTT9=
EXTT10=
EXTT11=
EXTT12=
EXTT13=
EXTT14=
EXTT15=
EXTT16=
EXTT17=
EXTT18=
EXTT19=
PLAYORDER=
